<svg width="24" height="24" viewBox="0 0 24 24" fill="none" xmlns="http://www.w3.org/2000/svg">
<g clip-path="url(#clip0_32_14463)">
<path d="M17.6503 6.34902C16.0203 4.71902 13.7103 3.77902 11.1703 4.03902C7.50027 4.40902 4.48027 7.38902 4.07027 11.059C3.52027 15.909 7.27027 19.999 12.0003 19.999C15.1903 19.999 17.9303 18.129 19.2103 15.439C19.5303 14.769 19.0503 13.999 18.3103 13.999C17.9403 13.999 17.5903 14.199 17.4303 14.529C16.3003 16.959 13.5903 18.499 10.6303 17.839C8.41026 17.349 6.62027 15.539 6.15027 13.319C5.31027 9.43902 8.26027 5.99902 12.0003 5.99902C13.6603 5.99902 15.1403 6.68902 16.2203 7.77902L14.7103 9.28902C14.0803 9.91902 14.5203 10.999 15.4103 10.999H19.0003C19.5503 10.999 20.0003 10.549 20.0003 9.99902V6.40902C20.0003 5.51902 18.9203 5.06902 18.2903 5.69902L17.6503 6.34902Z" fill="#323232"/>
</g>
<defs>
<clipPath id="clip0_32_14463">
<rect width="24" height="24" fill="white"/>
</clipPath>
</defs>
</svg>
